Motion_kv05_j
version=1
nRows=5
nColumns=43
inDegrees=yes
endheader
time	pelvis_tilt	pelvis_list	pelvis_rotation	pelvis_tx	pelvis_ty	pelvis_tz	hip_flexion_r	hip_adduction_r	hip_rotation_r	knee_angle_r	ankle_angle_r	subtalar_angle_r	mtp_angle_r	hip_flexion_l	hip_adduction_l	hip_rotation_l	knee_angle_l	ankle_angle_l	subtalar_angle_l	mtp_angle_l	lumbar_extension	lumbar_bending	lumbar_rotation	neck_flexion	neck_lateral_bending	neck_rotation	arm_flex_r	arm_add_r	arm_rot_r	elbow_flex_r	pro_sup_r	wrist_flex_r	wrist_dev_r	hand_finger_flex_r	arm_flex_l	arm_add_l	arm_rot_l	elbow_flex_l	pro_sup_l	wrist_flex_l	wrist_dev_l	hand_finger_flex_l
      0.00250000	     -5.59157011	     37.15524387	    -87.17060153	      0.00026636	      0.82800721	      0.41523211	     47.89299369	     -3.84035225	     -6.59198342	    -53.33555123	     17.87273363	      6.68408595	     17.66804173	     48.52632869	     -6.40529360	     -0.42535420	    -54.25525833	     25.20778801	     -5.47404252	      7.19058035	    -16.10342893	      0.34156604	     16.57707566	     33.49776824	     -1.49148878	    -11.37624834	     18.46188301	   -101.81604257	    -23.04564961	     97.68986423	     94.92734412	      4.07448908	     -7.48312548	     54.56989013	    112.74966055	    -38.57565400	     71.42579154	     83.07400954	    105.64161392	    -12.38543726	      5.86451583	     90.00021046
      0.00500000	     -5.71474165	     37.39103742	    -87.40548341	     -0.00019652	      0.83489647	      0.42019811	     47.08831822	     -3.43834877	     -6.40825394	    -51.36316749	     15.78735872	      6.77219861	     19.59523585	     47.65205992	     -6.76812626	     -0.62108020	    -52.45755955	     23.60119851	     -5.14903761	      7.74700122	    -15.94987078	      0.33968611	     16.76520281	     32.81177480	     -1.46692703	    -11.52036854	     18.45236886	   -100.70520449	    -22.23232184	     98.35767073	     96.16615243	      1.96405999	     -7.48342120	     57.28893897	    110.95635976	    -38.85534371	     70.02437140	     83.84741634	    107.74987969	    -11.84468000	      6.39149883	     90.00021046
      0.00750000	     -5.78630636	     37.62134372	    -87.64452342	     -0.00072017	      0.84150783	      0.42513632	     46.27098198	     -3.13432385	     -6.36846229	    -49.43042744	     14.05083052	      6.94778550	     20.03293426	     46.72993205	     -7.08233403	     -0.91125968	    -50.59384078	     22.14934392	     -5.12762577	      7.88735481	    -15.74771937	      0.26754627	     16.88126837	     31.99781564	     -1.19517104	    -11.34182157	     18.40611067	    -99.53124131	    -21.50017000	     98.98456754	     97.17907535	      0.76513047	     -7.24371594	     57.35052098	    109.51704703	    -39.08089431	     69.28010835	     84.32551955	    108.23941056	    -11.84463413	      6.59136658	     90.00021046
      0.01000000	     -5.78341916	     37.80346944	    -87.83834291	     -0.00096642	      0.84812872	      0.43019202	     45.38625479	     -2.94488609	     -6.29933743	    -47.48519350	     12.21244425	      7.09486814	     20.65746051	     45.74543424	     -7.26445657	     -1.15659518	    -48.70183512	     20.57372483	     -4.88678800	      8.23345558	    -15.63733056	      0.16558839	     16.90248477	     31.36378065	     -1.04025269	    -11.38065477	     18.58230161	    -98.37222104	    -20.59970810	     99.56517669	     98.41754838	     -0.41802020	     -7.09435214	     57.63396913	    107.97892078	    -39.34278860	     68.29816563	     85.00468988	    109.65054896	    -11.55681111	      7.01008454	     90.00021046
      0.01250000	     -5.80319411	     37.99185936	    -88.01369337	     -0.00123932	      0.85467831	      0.43520153	     44.49492065	     -2.74288798	     -6.24212734	    -45.49326257	     10.29760165	      7.23992311	     21.41957658	     44.77579905	     -7.45162921	     -1.37550195	    -46.79986915	     18.92140180	     -4.67308335	      8.74747663	    -15.53168547	      0.08890400	     16.92135327	     30.71859125	     -0.88893956	    -11.40054863	     18.87430476	    -97.26008142	    -19.57171449	    100.14383121	     99.55609199	     -1.54984667	     -6.99847555	     58.01588347	    106.42166520	    -39.58799271	     67.24167750	     85.62195175	    111.01033440	    -11.15755772	      7.41165613	     90.00021046
